<?xml version="1.0" encoding="UTF-8"?>
<svg version="1.1" xmlns="http://www.w3.org/2000/svg" width="270" height="125">
<path d="M0 0 C15.81725128 7.59776164 28.84080765 30.96746278 35 46.8359375 C38.92723829 59.26196491 41.11233435 71.91006522 35.09375 84.01171875 C29.48080548 94.21525003 22.30472357 100.87854359 11.171875 104.61328125 C1.51150734 106.33338269 -9.39732436 105.96512452 -18 101 C-26.6193654 94.58501253 -34.07175717 86.8669189 -36 76 C-37.75871444 51.73937753 -27.804061 31.02923649 -12.14013672 12.84033203 C-8.20260852 8.45274446 -4.13492375 4.20132398 0 0 Z M0 6 C-0.72726052 7.5747294 -1.43120422 9.16024279 -2.125 10.75 C-2.51945312 11.63171875 -2.91390625 12.5134375 -3.3203125 13.421875 C-4.24129022 15.96065909 -4.24129022 15.96065909 -3.25 18.25 C-1.75207953 20.34708866 -0.36810318 21.05275873 2 22 C3.32 20.68 4.64 19.36 6 18 C5.79503906 17.38511719 5.59007812 16.77023438 5.37890625 16.13671875 C4.25260417 12.7578125 3.12630208 9.37890625 2 6 C1.34 6 0.68 6 0 6 Z M-5 9 C-4 11 -4 11 -4 11 Z M6 9 C7.27721526 13.99275057 9.17330957 16.57611908 13 20 C13.66 19.67 14.32 19.34 15 19 C13.69118353 17.33043913 12.37785174 15.66441696 11.0625 14 C10.33160156 13.071875 9.60070312 12.14375 8.84765625 11.1875 C8.23792969 10.465625 7.62820312 9.74375 7 9 C6.67 9 6.34 9 6 9 Z M-6 11 C-7.21649657 12.30693157 -8.39878439 13.6458582 -9.5625 15 C-10.52349609 16.11375 -10.52349609 16.11375 -11.50390625 17.25 C-11.99761719 17.8275 -12.49132812 18.405 -13 19 C-12.01 19.495 -12.01 19.495 -11 20 C-7.12047456 17.37051309 -7.12047456 17.37051309 -5.1875 13.25 C-5.125625 12.5075 -5.06375 11.765 -5 11 C-5.33 11 -5.66 11 -6 11 Z M-15.8671875 24.8125 C-20.40602998 29.46772306 -21 36.70878006 -21 43 C-17.32728956 43.32835656 -17.32728956 43.32835656 -14.1875 41.625 C-12.8033278 40.06631217 -12.8033278 40.06631217 -13 38 C-12.38125 37.71125 -11.7625 37.4225 -11.125 37.125 C-8.86674235 36.06279958 -8.86674235 36.06279958 -7 34 C-6.75639927 30.87185486 -6.75639927 30.87185486 -6.875 27.375 C-6.89304687 26.18648437 -6.91109375 24.99796875 -6.9296875 23.7734375 C-6.95289063 22.85820312 -6.97609375 21.94296875 -7 21 C-10.51011004 21 -13.01368329 22.90404702 -15.8671875 24.8125 Z M9 21 C8.29977699 25.51254828 8.09147296 29.50674125 9 34 C12.69221657 38.81218892 17.15486102 43.05162034 23 45 C22.76897542 42.55703799 22.52839271 40.11598195 22.26953125 37.67578125 C22.0499983 35.49635994 21.89102617 33.31090567 21.75 31.125 C20.78846493 27.11860386 19.42799444 26.18145101 16 24 C15.113125 23.4225 14.22625 22.845 13.3125 22.25 C11.1448841 20.84149432 11.1448841 20.84149432 9 21 Z M-5 22 C-5 24.64 -5 27.28 -5 30 C-3.68 28.68 -2.36 27.36 -1 26 C-1.66 24.68 -2.32 23.36 -3 22 C-3.66 22 -4.32 22 -5 22 Z M4 23 C3.67 23.99 3.34 24.98 3 26 C3.99 26.99 4.98 27.98 6 29 C6 27.02 6 25.04 6 23 C5.34 23 4.68 23 4 23 Z M0 28 C-1.62946228 30.30595384 -3.1435897 32.60196707 -4.625 35 C-5.25535156 36.00160156 -5.25535156 36.00160156 -5.8984375 37.0234375 C-6.93864592 38.67831454 -7.97014051 40.33866288 -9 42 C-8.195625 42.639375 -7.39125 43.27875 -6.5625 43.9375 C-4 46 -4 46 -3 47 C-2.7367754 50.94836905 -2.91002627 53.60379269 -5 57 C-3.7934375 58.0828125 -3.7934375 58.0828125 -2.5625 59.1875 C0.02292072 62.02515689 0.68042813 63.27166147 1 67 C1.78375 66.21625 2.5675 65.4325 3.375 64.625 C7.3966367 61.21240925 11.89727996 60.67565661 17 60 C16.93821733 58.66549443 16.84901934 57.33226026 16.75 56 C16.70359375 55.2575 16.6571875 54.515 16.609375 53.75 C15.07644397 46.83215741 10.76964763 40.8130794 6.875 35 C6.21177734 33.98099609 6.21177734 33.98099609 5.53515625 32.94140625 C4.41253115 31.25577279 3.21244603 29.62222745 2 28 C1.34 28 0.68 28 0 28 Z M-24 35 C-25.15782465 37.34890274 -26.30121171 39.70320082 -27.4375 42.0625 C-27.76298828 42.71927734 -28.08847656 43.37605469 -28.42382812 44.05273438 C-30.5122926 48.42343838 -31.55424135 52.17199436 -32 57 C-27.48228907 52.85876498 -23.33843593 48.6744472 -22.75390625 42.328125 C-22.75043664 39.8716429 -22.82256708 37.44956007 -23 35 C-23.33 35 -23.66 35 -24 35 Z M25 36 C25.89203896 44.47437015 27.09625356 50.63016832 33 57 C34.61999217 53.76001565 33.07843821 51.08755605 32.03515625 47.75390625 C30.46456005 43.57552768 28.32293778 39.80117091 26 36 C25.67 36 25.34 36 25 36 Z M16 44 C16.44994757 45.79379098 16.91024143 47.58498928 17.375 49.375 C17.63023438 50.37273438 17.88546875 51.37046875 18.1484375 52.3984375 C18.82404319 55.12541015 18.82404319 55.12541015 21 57 C21.99 54.69 22.98 52.38 24 50 C22.85675161 48.9970458 21.71032809 47.99770973 20.5625 47 C19.92441406 46.443125 19.28632812 45.88625 18.62890625 45.3125 C17.21886821 43.89542935 17.21886821 43.89542935 16 44 Z M-13 46 C-13 49.3 -13 52.6 -13 56 C-11.35 55.67 -9.7 55.34 -8 55 C-8 52.69 -8 50.38 -8 48 C-10.475 47.01 -10.475 47.01 -13 46 Z M-20 46 C-21.91384609 49.50871784 -22.04276246 50.81367786 -21.125 54.8125 C-20.568125 56.3903125 -20.568125 56.3903125 -20 58 C-20.66 58 -21.32 58 -22 58 C-22.66 56.35 -23.32 54.7 -24 53 C-25.1446875 54.1446875 -25.1446875 54.1446875 -26.3125 55.3125 C-29 58 -29 58 -30.875 59.5625 C-32.22814765 60.94670416 -32.22814765 60.94670416 -31.79296875 62.88671875 C-30.81381383 65.49619073 -29.60020039 66.51983969 -27.4375 68.25 C-26.79683594 68.77078125 -26.15617187 69.2915625 -25.49609375 69.828125 C-25.00238281 70.21484375 -24.50867188 70.6015625 -24 71 C-23.01 69.68 -22.02 68.36 -21 67 C-21 68.65 -21 70.3 -21 72 C-20.34 72 -19.68 72 -19 72 C-19 63.42 -19 54.84 -19 46 C-19.33 46 -19.66 46 -20 46 Z M26 53 C24.68 55.64 23.36 58.28 22 61 C22.99 61 23.98 61 25 61 C24.67 63.31 24.34 65.62 24 68 C23.38125 67.360625 22.7625 66.72125 22.125 66.0625 C19.35098166 63.37007043 18.53591531 63.03969743 14.625 62.75 C11.13875584 62.80692246 11.13875584 62.80692246 8.625 63.9375 C5.99448786 67.27622695 5.81498457 70.83003695 6 75 C7.15281158 78.33708614 7.99875652 80.24043598 10.8125 82.375 C13.6013613 83.17181751 16.11552791 83.13111237 19 83 C19 80.36 19 77.72 19 75 C18.01 75 17.02 75 16 75 C16 74.34 16 73.68 16 73 C17.299375 73.185625 18.59875 73.37125 19.9375 73.5625 C24.66937248 73.60011425 26.75509485 71.982358 30.125 68.75 C32.4677861 66.48509249 32.4677861 66.48509249 34 64 C33.80510593 60.9046236 32.76732659 59.65098988 31 57 C30.34 57 29.68 57 29 57 C28.34 55.68 27.68 54.36 27 53 C26.67 53 26.34 53 26 53 Z M-13 59 C-13.02687279 60.81242052 -13.04633715 62.62495233 -13.0625 64.4375 C-13.07410156 65.44683594 -13.08570312 66.45617187 -13.09765625 67.49609375 C-13.28612676 69.94021067 -13.28612676 69.94021067 -12 71 C-9.54190002 71.2500773 -9.54190002 71.2500773 -7 71 C-6.34 70.34 -5.68 69.68 -5 69 C-5.18733437 65.56553663 -5.35702012 62.94916078 -7.3125 60.0625 C-9.23179989 58.64479115 -9.23179989 58.64479115 -13 59 Z M-34 66 C-33.52013969 71.56890517 -32.70084819 76.67067568 -31 82 C-28.74754119 79.31158141 -27.11786042 77.35358125 -26 74 C-27.3933549 71.85933366 -27.3933549 71.85933366 -29.375 69.8125 C-30.02210937 69.09707031 -30.66921875 68.38164063 -31.3359375 67.64453125 C-32.72861646 65.88284661 -32.72861646 65.88284661 -34 66 Z M34 67 C33.731875 67.639375 33.46375 68.27875 33.1875 68.9375 C32 71 32 71 29 72 C28.67 72.99 28.34 73.98 28 75 C29.87178116 78.18288354 29.87178116 78.18288354 32 81 C34.34545328 78.65454672 34.95508888 77.04014162 35.09765625 73.73828125 C35.08605469 72.93777344 35.07445313 72.13726562 35.0625 71.3125 C35.05347656 70.50425781 35.04445313 69.69601563 35.03515625 68.86328125 C35.02355469 68.24839844 35.01195313 67.63351563 35 67 C34.67 67 34.34 67 34 67 Z M-1 70 C-1 70.66 -1 71.32 -1 72 C-6.48675196 73.86783046 -11.22192976 74.2358396 -17 74 C-17.33 75.32 -17.66 76.64 -18 78 C-17.03578125 78.68707031 -16.0715625 79.37414062 -15.078125 80.08203125 C-13.80206523 80.99216212 -12.52602457 81.90231978 -11.25 82.8125 C-10.61578125 83.26431641 -9.9815625 83.71613281 -9.328125 84.18164062 C-6.19148171 86.41976631 -3.06803042 88.66798698 0 91 C0.5775 90.71125 1.155 90.4225 1.75 90.125 C3.83333333 89.08333333 5.91666667 88.04166667 8 87 C8 86.34 8 85.68 8 85 C7.21625 84.773125 6.4325 84.54625 5.625 84.3125 C3 83 3 83 1.75 80.875 C0.80360036 77.24713471 0.37940264 73.73079259 0 70 C-0.33 70 -0.66 70 -1 70 Z M25 76 C24.972807 77.58323688 24.95351694 79.16661062 24.9375 80.75 C24.92589844 81.63171875 24.91429687 82.5134375 24.90234375 83.421875 C24.99173802 85.7818838 25.33087179 87.74498524 26 90 C29.27773504 89.24849977 29.27773504 89.24849977 31 86 C30.72705935 82.04236061 28.27107444 79.12272736 26 76 C25.67 76 25.34 76 25 76 Z M-25 77 C-27.2549111 80.37939101 -27.2549111 80.37939101 -29 84 C-28.61446793 86.84079146 -28.61446793 86.84079146 -27 89 C-26.01 89.66 -25.02 90.32 -24 91 C-23.34 86.71 -22.68 82.42 -22 78 C-22.99 77.67 -23.98 77.34 -25 77 Z M-19 81 C-20.28980123 84.69743019 -21.22714361 88.13571805 -22 92 C-18.37 92.66 -14.74 93.32 -11 94 C-10.42008508 89.93647901 -10.42008508 89.93647901 -11 86 C-13.40408404 83.78043995 -16.04393189 82.37246019 -19 81 Z M10 86 C10.99 86.33 11.98 86.66 13 87 C13 89.31 13 91.62 13 94 C18.445 93.01 18.445 93.01 24 92 C23.67 90.02 23.34 88.04 23 86 C18.71 86 14.42 86 10 86 Z M-8 89 C-8 90.32 -8 91.64 -8 93 C-6.35 92.67 -4.7 92.34 -3 92 C-4.37485532 90.45833358 -4.37485532 90.45833358 -6 89 C-6.66 89 -7.32 89 -8 89 Z M6.375 90.5 C5.92125 90.995 5.4675 91.49 5 92 C7.475 92.495 7.475 92.495 10 93 C10 91.68 10 90.36 10 89 C7.87635519 88.77390663 7.87635519 88.77390663 6.375 90.5 Z M-6 96 C-3.75041666 98.58333229 -3.75041666 98.58333229 -1 101 C3.12612615 101.44844853 3.12612615 101.44844853 5.75 98.5 C6.4925 97.675 7.235 96.85 8 96 C2.6939046 93.64173538 -0.6939046 93.64173538 -6 96 Z M-20 95 C-16.82469891 97.72168665 -14.05745175 99.85559053 -10 101 C-7.75759218 100.71260075 -7.75759218 100.71260075 -6 100 C-10.84060277 96.93757784 -14.29290936 95.46588495 -20 95 Z M14.4375 96.25 C13.65246094 96.50265625 12.86742187 96.7553125 12.05859375 97.015625 C9.66882375 97.94280155 9.66882375 97.94280155 8 101 C13.70709064 100.53411505 17.15939723 99.06242216 22 96 C18.60104332 94.86701444 17.73016562 95.14340398 14.4375 96.25 Z " fill="#174469" transform="translate(66,7)"/>
<path d="M0 0 C6.91114434 3.05802847 11.7496863 9.54866924 16.5625 15.1875 C17.58537109 16.38439453 17.58537109 16.38439453 18.62890625 17.60546875 C20 20 20 20 19.71484375 22.80078125 C19.47894531 23.52652344 19.24304688 24.25226562 19 25 C15.01875869 24.43125124 12.38727672 23.12345246 9 21 C8.54401963 29.4855067 8.54401963 29.4855067 12.29296875 36.796875 C14.09619371 38.3533964 15.94743044 39.85647266 17.84765625 41.29296875 C18.55792969 41.85628906 19.26820312 42.41960938 20 43 C20 43.66 20 44.32 20 45 C19.01 45.33 18.02 45.66 17 46 C17.20496094 46.56847656 17.40992188 47.13695312 17.62109375 47.72265625 C19.29092669 52.5084454 20.46376936 56.95943201 21 62 C21.99 62 22.98 62 24 62 C24 63.65 24 65.3 24 67 C23.154375 66.505 22.30875 66.01 21.4375 65.5 C17.60510396 63.82768173 15.13759819 63.60966055 11 64 C7.8636509 65.60206591 7.8636509 65.60206591 7.5234375 67.953125 C7.47445312 68.71109375 7.42546875 69.4690625 7.375 70.25 C7.28025391 71.44689453 7.28025391 71.44689453 7.18359375 72.66796875 C7.12300781 73.43753906 7.06242187 74.20710938 7 75 C6.68377223 77.00277585 6.35820185 79.00430399 6 81 C4.35 80.67 2.7 80.34 1 80 C0.34 77.36 -0.32 74.72 -1 72 C-2.485 72.99 -2.485 72.99 -4 74 C-6.04296875 74.1953125 -6.04296875 74.1953125 -8.1875 74.125 C-9.445625 74.08375 -10.70375 74.0425 -12 74 C-12 73.34 -12 72.68 -12 72 C-10.02 71.01 -8.04 70.02 -6 69 C-6.58174845 63.6913151 -6.58174845 63.6913151 -9 59 C-7.68 59.33 -6.36 59.66 -5 60 C-5 59.34 -5 58.68 -5 58 C-3.1875 58.125 -3.1875 58.125 -1 59 C0.75 62.0625 0.75 62.0625 2 65 C2.763125 64.360625 3.52625 63.72125 4.3125 63.0625 C8.56915513 59.79576466 11.76717403 59.90126743 17 60 C15.66660306 48.66612599 9.59169963 40.7087217 3.05395508 31.68896484 C2 30 2 30 2 28 C1.34 28 0.68 28 0 28 C-0.26554687 28.72574219 -0.53109375 29.45148437 -0.8046875 30.19921875 C-2.00072948 33.00170928 -3.40329107 35.30479352 -5.125 37.8125 C-5.66382812 38.60269531 -6.20265625 39.39289062 -6.7578125 40.20703125 C-7.16773437 40.79871094 -7.57765625 41.39039063 -8 42 C-7.01 42.70125 -6.02 43.4025 -5 44.125 C-2.30900395 46.32959535 -2.04028076 46.64418661 -1.625 50.3125 C-1.74875 51.199375 -1.8725 52.08625 -2 53 C-3.32 53 -4.64 53 -6 53 C-6 52.34 -6 51.68 -6 51 C-6.66 51 -7.32 51 -8 51 C-8.495 49.515 -8.495 49.515 -9 48 C-10.65 47.34 -12.3 46.68 -14 46 C-14 49.63 -14 53.26 -14 57 C-12.35 57 -10.7 57 -9 57 C-9 57.33 -9 57.66 -9 58 C-10.65 58 -12.3 58 -14 58 C-14 60.31 -14 62.62 -14 65 C-14.33 64.34 -14.66 63.68 -15 63 C-15.66 63 -16.32 63 -17 63 C-16.79375 63.61875 -16.5875 64.2375 -16.375 64.875 C-16.25125 65.57625 -16.1275 66.2775 -16 67 C-16.99 67.99 -16.99 67.99 -18 69 C-18.08732726 65.10430865 -18.14050185 61.20887018 -18.1875 57.3125 C-18.21263672 56.20970703 -18.23777344 55.10691406 -18.26367188 53.97070312 C-18.27817383 52.3706543 -18.27817383 52.3706543 -18.29296875 50.73828125 C-18.31653442 49.26935425 -18.31653442 49.26935425 -18.34057617 47.77075195 C-17.9393221 44.50635591 -16.9642499 42.61790547 -15 40 C-14.34 40 -13.68 40 -13 40 C-13 39.34 -13 38.68 -13 38 C-12.19175781 37.43796875 -11.38351563 36.8759375 -10.55078125 36.296875 C-7.71212223 34.18965394 -7.71212223 34.18965394 -7.29296875 30.765625 C-7.25816406 29.60546875 -7.22335938 28.4453125 -7.1875 27.25 C-7.13980469 26.07953125 -7.09210937 24.9090625 -7.04296875 23.703125 C-7.02169922 22.36507813 -7.02169922 22.36507813 -7 21 C-13.56060431 23.9540095 -13.56060431 23.9540095 -18.109375 29.1796875 C-18.72520796 31.59245261 -18.72520796 31.59245261 -19 35 C-19.66 35 -20.32 35 -21 35 C-21.33 35.99 -21.66 36.98 -22 38 C-21.505 35.03 -21.505 35.03 -21 32 C-22.485 32.495 -22.485 32.495 -24 33 C-23.48680927 28.33779266 -21.39569327 25.19186125 -18.6875 21.5 C-18.25252197 20.89776611 -17.81754395 20.29553223 -17.36938477 19.67504883 C-12.15856518 12.62349552 -6.19539441 6.19539441 0 0 Z M0 6 C-0.72726052 7.5747294 -1.43120422 9.16024279 -2.125 10.75 C-2.51945312 11.63171875 -2.91390625 12.5134375 -3.3203125 13.421875 C-4.24129022 15.96065909 -4.24129022 15.96065909 -3.25 18.25 C-1.75207953 20.34708866 -0.36810318 21.05275873 2 22 C3.32 20.68 4.64 19.36 6 18 C5.79503906 17.38511719 5.59007812 16.77023438 5.37890625 16.13671875 C4.25260417 12.7578125 3.12630208 9.37890625 2 6 C1.34 6 0.68 6 0 6 Z M-5 9 C-4 11 -4 11 -4 11 Z M6 9 C7.27721526 13.99275057 9.17330957 16.57611908 13 20 C13.66 19.67 14.32 19.34 15 19 C13.69118353 17.33043913 12.37785174 15.66441696 11.0625 14 C10.33160156 13.071875 9.60070312 12.14375 8.84765625 11.1875 C8.23792969 10.465625 7.62820312 9.74375 7 9 C6.67 9 6.34 9 6 9 Z M-6 11 C-7.21649657 12.30693157 -8.39878439 13.6458582 -9.5625 15 C-10.52349609 16.11375 -10.52349609 16.11375 -11.50390625 17.25 C-11.99761719 17.8275 -12.49132813 18.405 -13 19 C-12.01 19.495 -12.01 19.495 -11 20 C-7.12047456 17.37051309 -7.12047456 17.37051309 -5.1875 13.25 C-5.125625 12.5075 -5.06375 11.765 -5 11 C-5.33 11 -5.66 11 -6 11 Z M-5 22 C-5 24.64 -5 27.28 -5 30 C-3.68 28.68 -2.36 27.36 -1 26 C-1.66 24.68 -2.32 23.36 -3 22 C-3.66 22 -4.32 22 -5 22 Z M4 23 C3.67 23.99 3.34 24.98 3 26 C3.99 26.99 4.98 27.98 6 29 C6 27.02 6 25.04 6 23 C5.34 23 4.68 23 4 23 Z " fill="#1C4C71" transform="translate(66,7)"/>
<path d="M0 0 C1.4540625 0.0309375 1.4540625 0.0309375 2.9375 0.0625 C6.27083333 8.39583333 9.60416667 16.72916667 12.9375 25.0625 C16.25350009 18.02129129 19.20961356 10.91282746 21.921875 3.6171875 C22.9375 1.0625 22.9375 1.0625 23.9375 0.0625 C25.93708364 0.02169217 27.93795254 0.01995644 29.9375 0.0625 C29.76347656 1.1246875 29.58945313 2.186875 29.41015625 3.28125 C28.68839605 9.05533159 29.07347629 14.76769942 29.375 20.5625 C29.45331055 22.22539063 29.45331055 22.22539063 29.53320312 23.921875 C29.66187928 26.63577203 29.79679406 29.34920458 29.9375 32.0625 C27.2975 32.0625 24.6575 32.0625 21.9375 32.0625 C22.11152344 31.23492187 22.28554687 30.40734375 22.46484375 29.5546875 C22.98844005 25.68613303 22.82601234 22.0546809 22.5 18.1875 C22.44779297 17.49914062 22.39558594 16.81078125 22.34179688 16.1015625 C22.21344902 14.42137242 22.07637775 12.74185251 21.9375 11.0625 C21.63513428 11.91013916 21.63513428 11.91013916 21.32666016 12.77490234 C20.4110941 15.3312301 19.48691315 17.88435892 18.5625 20.4375 C18.24539062 21.32695313 17.92828125 22.21640625 17.6015625 23.1328125 C17.2921875 23.98359375 16.9828125 24.834375 16.6640625 25.7109375 C16.23988037 26.88922119 16.23988037 26.88922119 15.80712891 28.09130859 C14.9375 30.0625 14.9375 30.0625 12.9375 32.0625 C10.94628906 31.96704102 10.94628906 31.96704102 8.9375 31.0625 C7.74902344 29.11303711 7.74902344 29.11303711 6.796875 26.58984375 C6.27480469 25.24116211 6.27480469 25.24116211 5.7421875 23.86523438 C5.39414063 22.91970703 5.04609375 21.97417969 4.6875 21 C4.14222656 19.5759082 4.14222656 19.5759082 3.5859375 18.12304688 C2.68913039 15.77482825 1.81149098 13.41930578 0.9375 11.0625 C0.9375 17.9925 0.9375 24.9225 0.9375 32.0625 C-0.7125 32.0625 -2.3625 32.0625 -4.0625 32.0625 C-3.5675 30.5775 -3.5675 30.5775 -3.0625 29.0625 C-2.91220012 26.99887009 -2.81405552 24.93126085 -2.74609375 22.86328125 C-2.70419922 21.65478516 -2.66230469 20.44628906 -2.61914062 19.20117188 C-2.56016602 17.3072168 -2.56016602 17.3072168 -2.5 15.375 C-2.45681641 14.10076172 -2.41363281 12.82652344 -2.36914062 11.51367188 C-2.2629514 8.36339148 -2.16090467 5.21303161 -2.0625 2.0625 C-2.7225 1.7325 -3.3825 1.4025 -4.0625 1.0625 C-3.0625 0.0625 -3.0625 0.0625 0 0 Z " fill="#060606" transform="translate(184.0625,51.9375)"/>
<path d="M0 0 C0.55945313 0.46792969 1.11890625 0.93585937 1.6953125 1.41796875 C1.3653125 2.73796875 1.0353125 4.05796875 0.6953125 5.41796875 C-0.2946875 5.41796875 -1.2846875 5.41796875 -2.3046875 5.41796875 C-3.0265625 4.59296875 -3.7484375 3.76796875 -4.4921875 2.91796875 C-7.3419429 0.38485284 -7.81607704 0.00728202 -11.3671875 -0.14453125 C-15.23237985 0.11146108 -15.23237985 0.11146108 -17.6796875 2.04296875 C-20.41156906 6.03571872 -21.37736244 9.06136987 -21.1171875 13.91796875 C-20.02965044 18.60274376 -18.79002086 22.02265559 -15.2421875 25.35546875 C-10.73376231 26.98617574 -7.02088384 26.10967755 -2.3046875 25.41796875 C-2.7996875 18.98296875 -2.7996875 18.98296875 -3.3046875 12.41796875 C-0.9946875 12.41796875 1.3153125 12.41796875 3.6953125 12.41796875 C3.3478125 22.49546875 3.3478125 22.49546875 0.8828125 25.98046875 C-4.54896905 29.5499252 -8.84062906 30.21477102 -15.3046875 29.41796875 C-19.2914815 28.09154957 -21.89439651 25.88224539 -24.6796875 22.73046875 C-27.40832473 17.16824671 -27.93496173 12.64246602 -26.2421875 6.66796875 C-23.47552485 2.02711527 -20.31283172 -0.5323195 -15.5546875 -3.01953125 C-10.14684681 -3.95550368 -4.57243902 -3.13870814 0 0 Z " fill="#060606" transform="translate(148.3046875,54.58203125)"/>
<path d="M0 0 C0.87454834 0.00523682 1.74909668 0.01047363 2.65014648 0.01586914 C3.59438477 0.0190918 4.53862305 0.02231445 5.51147461 0.02563477 C6.50469727 0.03401367 7.49791992 0.04239258 8.52124023 0.05102539 C9.51833008 0.05553711 10.51541992 0.06004883 11.54272461 0.06469727 C14.01478872 0.07652532 16.48673541 0.0930069 18.95874023 0.11352539 C21.00561523 3.83227539 21.00561523 3.83227539 20.58374023 6.36352539 C20.37749023 6.94102539 20.17124023 7.51852539 19.95874023 8.11352539 C19.06155273 6.90696289 19.06155273 6.90696289 18.14624023 5.67602539 C14.28185604 1.69930445 9.20349518 2.30309485 3.95874023 2.11352539 C3.95874023 6.07352539 3.95874023 10.03352539 3.95874023 14.11352539 C6.26874023 14.11352539 8.57874023 14.11352539 10.95874023 14.11352539 C11.28874023 13.12352539 11.61874023 12.13352539 11.95874023 11.11352539 C12.28874023 11.11352539 12.61874023 11.11352539 12.95874023 11.11352539 C12.95874023 13.75352539 12.95874023 16.39352539 12.95874023 19.11352539 C12.40186523 18.78352539 11.84499023 18.45352539 11.27124023 18.11352539 C8.61376863 16.7827661 8.61376863 16.7827661 3.95874023 17.11352539 C3.95874023 21.07352539 3.95874023 25.03352539 3.95874023 29.11352539 C6.08453036 29.05364398 8.20952437 28.96489795 10.33374023 28.86352539 C11.51709961 28.81711914 12.70045898 28.77071289 13.91967773 28.72290039 C17.07165776 28.4570374 17.07165776 28.4570374 18.37280273 26.06665039 C18.56616211 25.42211914 18.75952148 24.77758789 18.95874023 24.11352539 C19.61874023 24.11352539 20.27874023 24.11352539 20.95874023 24.11352539 C20.08374023 30.98852539 20.08374023 30.98852539 18.95874023 32.11352539 C17.39701279 32.20038142 15.83144679 32.22054759 14.26733398 32.21118164 C13.3230957 32.20795898 12.37885742 32.20473633 11.40600586 32.20141602 C10.4127832 32.19303711 9.41956055 32.1846582 8.39624023 32.17602539 C7.39915039 32.17151367 6.40206055 32.16700195 5.37475586 32.16235352 C2.90269175 32.15052546 0.43074506 32.13404388 -2.04125977 32.11352539 C-2.04125977 29.040504 -1.93784805 25.9851884 -1.82250977 22.91430664 C-1.77739258 21.70581055 -1.73227539 20.49731445 -1.68579102 19.25219727 C-1.6380957 17.98956055 -1.59040039 16.72692383 -1.54125977 15.42602539 C-1.49356445 14.15178711 -1.44586914 12.87754883 -1.39672852 11.56469727 C-1.27873565 8.41428767 -1.16022534 5.26389838 -1.04125977 2.11352539 C-1.70125977 1.78352539 -2.36125977 1.45352539 -3.04125977 1.11352539 C-2.04125977 0.11352539 -2.04125977 0.11352539 0 0 Z " fill="#080707" transform="translate(157.041259765625,51.886474609375)"/>
<path d="M0 0 C2 2 2 2 2.125 4.625 C2.08375 5.40875 2.0425 6.1925 2 7 C1.01 7 0.02 7 -1 7 C-1.28875 6.360625 -1.5775 5.72125 -1.875 5.0625 C-2.82823451 2.84793921 -2.82823451 2.84793921 -5 2 C-6.37342831 1.9310528 -7.75002102 1.91532292 -9.125 1.9375 C-10.40375 1.958125 -11.6825 1.97875 -13 2 C-13.76956136 4.34533951 -13.76956136 4.34533951 -14 7 C-11.82724116 9.8752842 -9.40799617 10.73803438 -6.0625 11.875 C-1.80605443 13.51544034 0.80397743 14.80759327 3 19 C3.5625 22 3.5625 22 3 25 C0.30980061 28.18576243 -1.87317423 30.76282199 -6.13671875 31.23828125 C-12.38321845 31.42003239 -15.86046759 30.5753269 -21 27 C-21 25.35 -21 23.7 -21 22 C-20.01 21.67 -19.02 21.34 -18 21 C-17.7525 21.78375 -17.505 22.5675 -17.25 23.375 C-15.79048643 26.4399785 -15.10982493 26.85369769 -12 28 C-9.66199671 28.06637408 -9.66199671 28.06637408 -7.3125 27.6875 C-6.52488281 27.58824219 -5.73726562 27.48898438 -4.92578125 27.38671875 C-3.00039733 27.185081 -3.00039733 27.185081 -2 26 C-1.95936168 24.33382885 -1.957279 22.66611905 -2 21 C-3.04800781 20.48050781 -4.09601563 19.96101563 -5.17578125 19.42578125 C-6.55505344 18.72207095 -7.93393969 18.01760385 -9.3125 17.3125 C-10.00279297 16.97283203 -10.69308594 16.63316406 -11.40429688 16.28320312 C-15.52952539 14.15083863 -18.17331211 12.48822922 -20 8 C-19.6875 4.375 -19.6875 4.375 -18 1 C-12.51184757 -3.126328 -6.14246386 -2.15785441 0 0 Z " fill="#070707" transform="translate(237,53)"/>
<path d="M0 0 C0.99 0.33 1.98 0.66 3 1 C3.6875 3.0625 3.6875 3.0625 4 5 C4.78375 4.814375 5.5675 4.62875 6.375 4.4375 C9 4 9 4 11 5 C12.7325 4.7215625 12.7325 4.7215625 14.5 4.4375 C15.655 4.293125 16.81 4.14875 18 4 C20 6 20 6 20.1953125 7.9453125 C20.13020833 9.96354167 20.06510417 11.98177083 20 14 C19.01 14 18.02 14 17 14 C17 11.36 17 8.72 17 6 C16.34 6 15.68 6 15 6 C14.96261719 6.62648438 14.92523438 7.25296875 14.88671875 7.8984375 C14.82097656 8.71570313 14.75523437 9.53296875 14.6875 10.375 C14.62949219 11.18710938 14.57148438 11.99921875 14.51171875 12.8359375 C14 15 14 15 11 17 C7.8271995 17.40676929 6.47859306 17.3281781 3.8125 15.5 C3.214375 15.005 2.61625 14.51 2 14 C1.34 14 0.68 14 0 14 C-0.19393875 11.85473901 -0.37998676 9.70876323 -0.5625 7.5625 C-0.71912109 5.77005859 -0.71912109 5.77005859 -0.87890625 3.94140625 C-0.91886719 2.97074219 -0.95882812 2.00007813 -1 1 C-0.67 0.67 -0.34 0.34 0 0 Z M7 6 C6.67 6.66 6.34 7.32 6 8 C6.66 8 7.32 8 8 8 C7.67 7.34 7.34 6.68 7 6 Z M11 6 C11 8.31 11 10.62 11 13 C11.33 13 11.66 13 12 13 C12 10.69 12 8.38 12 6 C11.67 6 11.34 6 11 6 Z M7 9 C6.67 10.65 6.34 12.3 6 14 C8.475 14.495 8.475 14.495 11 15 C10.2884375 14.3503125 10.2884375 14.3503125 9.5625 13.6875 C8 12 8 12 7 9 Z " fill="#0A0A09" transform="translate(175,88)"/>
<path d="M0 0 C6.29675193 0 7.98289872 0.06316023 13 3 C12.79375 3.763125 12.5875 4.52625 12.375 5.3125 C11.66608797 8.21885944 11.66608797 8.21885944 14 11 C14.0625 13.5 14.0625 13.5 13 16 C7.84310761 19.03346611 6.12258191 19.02043032 0 18 C0 12.06 0 6.12 0 0 Z M4 3 C3.67 4.65 3.34 6.3 3 8 C4.98 7.67 6.96 7.34 9 7 C9 5.68 9 4.36 9 3 C7.35 3 5.7 3 4 3 Z M3 10 C3 11.98 3 13.96 3 16 C6.465 15.505 6.465 15.505 10 15 C10 13.35 10 11.7 10 10 C6.98968256 9.06576355 6.13349732 8.95550089 3 10 Z " fill="#0C0A0B" transform="translate(141,33)"/>
<path d="M0 0 C3.0625 2 3.0625 2 5 5 C5 9.24689491 4.00714055 12.76905044 1.3125 16.0625 C-2.06368685 17.4312244 -4.39043667 17.50660538 -8 17 C-10.93052231 15.00475077 -12.64521503 13.57163515 -13.4453125 10.02734375 C-13.64529931 6.46091226 -13.30896766 4.40165795 -11.125 1.5625 C-7.08323682 -1.40938469 -4.91322009 -1.16584883 0 0 Z M-8.1875 2.5 C-10.21383669 5.29494716 -10.22649467 5.84835475 -9.875 9.125 C-9.36433897 12.99165636 -9.36433897 12.99165636 -7 15 C-3.40320934 14.67673447 -3.40320934 14.67673447 0 14 C0.88506382 10.01271791 0.88506382 10.01271791 1 6 C-1.14691542 2.93468711 -1.14691542 2.93468711 -4 1 C-6.16715487 0.81149055 -6.16715487 0.81149055 -8.1875 2.5 Z " fill="#0A0A0A" transform="translate(204,34)"/>
<path d="M0 0 C0.66 0.33 1.32 0.66 2 1 C2.625 3.0625 2.625 3.0625 3 5 C3.66 5 4.32 5 5 5 C5 6.65 5 8.3 5 10 C5.226875 9.195625 5.45375 8.39125 5.6875 7.5625 C7 5 7 5 9.5 4.0625 C10.325 4.041875 11.15 4.02125 12 4 C14 6 14 6 14.1953125 7.9453125 C14.13020833 9.96354167 14.06510417 11.98177083 14 14 C9.05 14 4.1 14 -1 14 C-1.09765625 3.94140625 -1.09765625 3.94140625 -1 1 C-0.67 0.67 -0.34 0.34 0 0 Z M10 9 C9.67 9.99 9.34 10.98 9 12 C9.66 12 10.32 12 11 12 C10.67 11.01 10.34 10.02 10 9 Z " fill="#101010" transform="translate(197,88)"/>
<path d="M0 0 C0.99 0.33 1.98 0.66 3 1 C3.3721042 2.32303717 3.70630173 3.65737935 4 5 C4.66 5.33 5.32 5.66 6 6 C6.8515625 7.9609375 6.8515625 7.9609375 7.625 10.375 C7.88539063 11.16648437 8.14578125 11.95796875 8.4140625 12.7734375 C9 15 9 15 9 18 C7.68 18 6.36 18 5 18 C5 16.68 5 15.36 5 14 C2.36 14.33 -0.28 14.66 -3 15 C-3.33 15.99 -3.66 16.98 -4 18 C-4.99 18 -5.98 18 -7 18 C-5.06375702 11.79522136 -2.74390859 5.89174281 0 0 Z M0 5 C-0.66 7.31 -1.32 9.62 -2 12 C-0.02 12 1.96 12 4 12 C3.01 9.69 2.02 7.38 1 5 C0.67 5 0.34 5 0 5 Z " fill="#0C0C0C" transform="translate(161,33)"/>
<path d="M0 0 C6.45166472 2.81448461 11.87725181 8.75450362 15 15 C14.34 15.66 13.68 16.32 13 17 C11.02 14.69 9.04 12.38 7 10 C7.66 12.31 8.32 14.62 9 17 C8.34 17 7.68 17 7 17 C7 17.66 7 18.32 7 19 C5 18 5 18 4.1484375 16.0390625 C3.76558594 14.84410156 3.76558594 14.84410156 3.375 13.625 C3.11460938 12.83351563 2.85421875 12.04203125 2.5859375 11.2265625 C2 9 2 9 2 6 C1.34 6 0.68 6 0 6 C-0.66 4.68 -1.32 3.36 -2 2 C-1.34 1.34 -0.68 0.68 0 0 Z " fill="#1F4B70" transform="translate(66,7)"/>
<path d="M0 0 C2.97 0.33 5.94 0.66 9 1 C8.67 1.66 8.34 2.32 8 3 C6.35 3 4.7 3 3 3 C3 6.63 3 10.26 3 14 C4.65 14 6.3 14 8 14 C8 14.33 8 14.66 8 15 C6.35 15 4.7 15 3 15 C3 17.31 3 19.62 3 22 C2.67 21.34 2.34 20.68 2 20 C1.34 20 0.68 20 0 20 C0.20625 20.61875 0.4125 21.2375 0.625 21.875 C0.74875 22.57625 0.8725 23.2775 1 24 C0.34 24.66 -0.32 25.32 -1 26 C-1.02892857 22.04168191 -1.04677427 18.08339083 -1.0625 14.125 C-1.07087891 12.99707031 -1.07925781 11.86914062 -1.08789062 10.70703125 C-1.09111328 9.63066406 -1.09433594 8.55429687 -1.09765625 7.4453125 C-1.10289307 6.45031738 -1.10812988 5.45532227 -1.11352539 4.43017578 C-1 2 -1 2 0 0 Z " fill="#19537B" transform="translate(49,50)"/>
<path d="M0 0 C0.89847656 0.00257812 1.79695312 0.00515625 2.72265625 0.0078125 C3.61855469 0.00523438 4.51445312 0.00265625 5.4375 0 C7.78515625 0.1328125 7.78515625 0.1328125 9.78515625 1.1328125 C9.78515625 2.4528125 9.78515625 3.7728125 9.78515625 5.1328125 C9.12515625 5.1328125 8.46515625 5.1328125 7.78515625 5.1328125 C7.78515625 4.4728125 7.78515625 3.8128125 7.78515625 3.1328125 C5.80515625 3.4628125 3.82515625 3.7928125 1.78515625 4.1328125 C1.45515625 5.4528125 1.12515625 6.7728125 0.78515625 8.1328125 C2.43515625 7.8028125 4.08515625 7.4728125 5.78515625 7.1328125 C5.78515625 8.4528125 5.78515625 9.7728125 5.78515625 11.1328125 C4.13515625 10.8028125 2.48515625 10.4728125 0.78515625 10.1328125 C1.11515625 12.7728125 1.44515625 15.4128125 1.78515625 18.1328125 C0.13515625 18.1328125 -1.51484375 18.1328125 -3.21484375 18.1328125 C-3.24168687 15.32024969 -3.26160563 12.50794009 -3.27734375 9.6953125 C-3.28572266 8.89287109 -3.29410156 8.09042969 -3.30273438 7.26367188 C-3.31135805 5.21986029 -3.26712525 3.17597348 -3.21484375 1.1328125 C-2.21484375 0.1328125 -2.21484375 0.1328125 0 0 Z " fill="#0A090A" transform="translate(212.21484375,32.8671875)"/>
<path d="M0 0 C0.66 0 1.32 0 2 0 C4.1875 2.1875 4.1875 2.1875 6 5 C5.75 7.8125 5.75 7.8125 5 10 C1.04179141 9.43454163 -1.6659053 8.19097652 -5 6 C-5 9.3 -5 12.6 -5 16 C-6.98 16 -8.96 16 -11 16 C-11.33 15.01 -11.66 14.02 -12 13 C-12.66 12.67 -13.32 12.34 -14 12 C-12.68 11.67 -11.36 11.34 -10 11 C-9.67 11.66 -9.34 12.32 -9 13 C-8.67 10.69 -8.34 8.38 -8 6 C-7.360625 5.87625 -6.72125 5.7525 -6.0625 5.625 C-5.381875 5.41875 -4.70125 5.2125 -4 5 C-3.67 4.34 -3.34 3.68 -3 3 C-2.34 3 -1.68 3 -1 3 C-0.67 2.01 -0.34 1.02 0 0 Z " fill="#265675" transform="translate(80,22)"/>
<path d="M0 0 C1.4540625 0.0309375 1.4540625 0.0309375 2.9375 0.0625 C2.2775 2.3725 1.6175 4.6825 0.9375 7.0625 C0.2775 7.0625 -0.3825 7.0625 -1.0625 7.0625 C-1.7225 8.3825 -2.3825 9.7025 -3.0625 11.0625 C-3.3925 10.0725 -3.7225 9.0825 -4.0625 8.0625 C-4.46082031 9.27808594 -4.85914063 10.49367188 -5.26953125 11.74609375 C-5.80406495 13.33093928 -6.33925527 14.91556345 -6.875 16.5 C-7.13603516 17.30244141 -7.39707031 18.10488281 -7.66601562 18.93164062 C-7.92705078 19.69541016 -8.18808594 20.45917969 -8.45703125 21.24609375 C-8.69268799 21.95306396 -8.92834473 22.66003418 -9.17114258 23.38842773 C-10.0625 25.0625 -10.0625 25.0625 -13.0625 26.0625 C-12.45288113 22.59721696 -11.56085807 19.49715819 -10.25 16.234375 C-9.89679688 15.35265625 -9.54359375 14.4709375 -9.1796875 13.5625 C-8.81101563 12.655 -8.44234375 11.7475 -8.0625 10.8125 C-7.69382813 9.88953125 -7.32515625 8.9665625 -6.9453125 8.015625 C-3.74629399 0.07645498 -3.74629399 0.07645498 0 0 Z " fill="#090909" transform="translate(211.0625,51.9375)"/>
<path d="M0 0 C2.375 0.1875 2.375 0.1875 5 1 C6.1875 3.5 6.1875 3.5 7 6 C7.66 6.33 8.32 6.66 9 7 C9.268125 6.030625 9.53625 5.06125 9.8125 4.0625 C10.4003125 2.5465625 10.4003125 2.5465625 11 1 C11.99 0.67 12.98 0.34 14 0 C13.49554865 2.62314702 12.77497014 4.39605255 11.4375 6.75 C9.62447942 10.84900305 9.77027659 13.55868083 10 18 C8.35 18 6.7 18 5 18 C5.103125 16.824375 5.20625 15.64875 5.3125 14.4375 C5.35150501 10.03773515 3.89754655 7.82185305 1.09375 4.54296875 C0 3 0 3 0 0 Z " fill="#080707" transform="translate(168,33)"/>
<path d="M0 0 C0.56203125 0.46664062 1.1240625 0.93328125 1.703125 1.4140625 C1.373125 2.7340625 1.043125 4.0540625 0.703125 5.4140625 C-0.286875 5.4140625 -1.276875 5.4140625 -2.296875 5.4140625 C-3.01875 4.5890625 -3.740625 3.7640625 -4.484375 2.9140625 C-7.35600567 0.3615019 -7.787571 0.02028715 -11.359375 -0.0859375 C-15.27561799 0.4113632 -16.46047115 0.89281464 -19.296875 3.4140625 C-20.286875 3.4140625 -21.276875 3.4140625 -22.296875 3.4140625 C-21.796875 1.6015625 -21.796875 1.6015625 -20.296875 -0.5859375 C-13.50402353 -4.22496507 -6.55996803 -4.52950173 0 0 Z " fill="#111111" transform="translate(148.296875,54.5859375)"/>
<path d="M0 0 C0.33 0 0.66 0 1 0 C1 3.3 1 6.6 1 10 C2.32 9.67 3.64 9.34 5 9 C5.33 7.68 5.66 6.36 6 5 C6.66 5 7.32 5 8 5 C8 5.66 8 6.32 8 7 C8.99 7 9.98 7 11 7 C10.34 9.31 9.68 11.62 9 14 C6.36 13.67 3.72 13.34 1 13 C1.11389875 14.79240663 1.24147687 16.58394835 1.375 18.375 C1.44460937 19.37273437 1.51421875 20.37046875 1.5859375 21.3984375 C1.76363964 24.15508879 1.76363964 24.15508879 4 26 C2.68 25.67 1.36 25.34 0 25 C0 16.75 0 8.5 0 0 Z " fill="#0F3E64" transform="translate(52,53)"/>
<path d="M0 0 C0.99 0.33 1.98 0.66 3 1 C3 4.3 3 7.6 3 11 C2.01 11.33 1.02 11.66 0 12 C-0.33 10.02 -0.66 8.04 -1 6 C-1.66 6 -2.32 6 -3 6 C-3 5.34 -3 4.68 -3 4 C-3.66 4 -4.32 4 -5 4 C-5 6.64 -5 9.28 -5 12 C-5.66 12 -6.32 12 -7 12 C-7.33 9.03 -7.66 6.06 -8 3 C-4.29847322 2.07461831 -3.36541838 1.91825838 0 3 C0 2.01 0 1.02 0 0 Z " fill="#0A0A0A" transform="translate(166,90)"/>
<path d="M0 0 C1.5 1 1.5 1 3 3 C3.27345479 5.71846235 3.13491285 8.25677199 3 11 C2.01 10.67 1.02 10.34 0 10 C0.22816406 10.83144531 0.45632812 11.66289063 0.69140625 12.51953125 C0.97886719 13.60621094 1.26632813 14.69289063 1.5625 15.8125 C1.85253906 16.89144531 2.14257812 17.97039062 2.44140625 19.08203125 C3 22 3 22 2 25 C1.34 25.33 0.68 25.66 0 26 C-1.26536578 22.20390266 -1.14514996 18.64024984 -1.125 14.6875 C-1.12886719 13.94048828 -1.13273437 13.19347656 -1.13671875 12.42382812 C-1.12925356 8.17240142 -0.83873595 4.18702309 0 0 Z " fill="#113F63" transform="translate(31,60)"/>
<path d="M0 0 C3.27212129 2.68077407 4.64584614 6.19986853 6.25 10 C6.53101562 10.6290625 6.81203125 11.258125 7.1015625 11.90625 C9.12326067 16.630218 9.12326067 16.630218 8 20 C7.34 20.33 6.68 20.66 6 21 C5.66226563 20.10796875 5.32453125 19.2159375 4.9765625 18.296875 C4.30753906 16.54117188 4.30753906 16.54117188 3.625 14.75 C2.96371094 13.00976562 2.96371094 13.00976562 2.2890625 11.234375 C1.29409145 8.73790219 0.25589954 6.37095053 -1 4 C-0.34 4 0.32 4 1 4 C0.67 2.68 0.34 1.36 0 0 Z " fill="#1A4261" transform="translate(93,40)"/>
<path d="M0 0 C1.67542976 0.28604898 3.34385343 0.61781233 5 1 C6.10844919 4.32534757 5.84454356 6.62182575 5 10 C3.02 10 1.04 10 -1 10 C-2.10717914 6.67846257 -1.9099978 4.36699184 -1 1 C-0.67 0.67 -0.34 0.34 0 0 Z M1 2 C1.33 2.66 1.66 3.32 2 4 C2.66 3.67 3.32 3.34 4 3 C3.01 2.67 2.02 2.34 1 2 Z M0 6 C0.33 6.66 0.66 7.32 1 8 C1.99 7.67 2.98 7.34 4 7 C2.68 6.67 1.36 6.34 0 6 Z " fill="#111111" transform="translate(152,92)"/>
<path d="M0 0 C0.66 0 1.32 0 2 0 C1.125 6.875 1.125 6.875 0 8 C-2.18639453 8.07258946 -4.37500389 8.08373783 -6.5625 8.0625 C-8.35880859 8.04896484 -8.35880859 8.04896484 -10.19140625 8.03515625 C-11.11824219 8.02355469 -12.04507813 8.01195313 -13 8 C-13 7.01 -13 6.02 -13 5 C-12.22914063 4.97421875 -11.45828125 4.9484375 -10.6640625 4.921875 C-9.66117188 4.86515625 -8.65828125 4.8084375 -7.625 4.75 C-6.62726563 4.70359375 -5.62953125 4.6571875 -4.6015625 4.609375 C-1.8473523 4.27839115 -1.8473523 4.27839115 -0.6484375 1.953125 C-0.43445313 1.30859375 -0.22046875 0.6640625 0 0 Z " fill="#161616" transform="translate(176,76)"/>
<path d="M0 0 C0.66 0 1.32 0 2 0 C2.2475 0.78375 2.495 1.5675 2.75 2.375 C3.76282232 5.01305215 3.76282232 5.01305215 5.625 6.25 C9.05750779 7.33394983 12.41844132 7.64184413 16 8 C16 8.66 16 9.32 16 10 C9.01370081 10.50604984 4.79799884 10.0333905 -1 6 C-1.042721 4.33388095 -1.04063832 2.66617115 -1 1 C-0.67 0.67 -0.34 0.34 0 0 Z " fill="#0D0D0D" transform="translate(217,74)"/>
<path d="M0 0 C0.33 0 0.66 0 1 0 C1 1.98 1 3.96 1 6 C2.19625 5.649375 3.3925 5.29875 4.625 4.9375 C8.37673012 3.98287828 11.2006739 4.05016847 15 5 C15 5.99 15 6.98 15 8 C9.72 8 4.44 8 -1 8 C-0.67 5.36 -0.34 2.72 0 0 Z " fill="#144C76" transform="translate(77,95)"/>
<path d="M0 0 C0.33 0 0.66 0 1 0 C0.51834131 6.38197767 0.51834131 6.38197767 -1.625 8.9375 C-4.94390436 10.422273 -7.40344806 10.38534485 -11 10 C-13.4375 8.6875 -13.4375 8.6875 -15 7 C-15 6.01 -15 5.02 -15 4 C-14.01 4 -13.02 4 -12 4 C-11.01 5.485 -11.01 5.485 -10 7 C-5.545 6.505 -5.545 6.505 -1 6 C-1.020625 5.195625 -1.04125 4.39125 -1.0625 3.5625 C-1 1 -1 1 0 0 Z " fill="#110F10" transform="translate(207,41)"/>
<path d="M0 0 C5.28 0 10.56 0 16 0 C18 4 18 4 17.625 6.25 C17.41875 6.8275 17.2125 7.405 17 8 C16.38125 7.195625 15.7625 6.39125 15.125 5.5625 C11.93170399 2.28638075 8.6032408 2.36351061 4.20703125 2.23828125 C2 2 2 2 0 0 Z " fill="#1A1819" transform="translate(160,52)"/>
<path d="M0 0 C0.33 0 0.66 0 1 0 C0.57534294 7.36072234 -1.98348917 13.32137824 -5 20 C-5.66 20 -6.32 20 -7 20 C-6.29937517 15.43263559 -4.68729793 11.4300495 -2.9375 7.1875 C-2.51500977 6.14819336 -2.51500977 6.14819336 -2.08398438 5.08789062 C-1.39325027 3.39032376 -0.69716272 1.69493688 0 0 Z " fill="#121112" transform="translate(205,58)"/>
<path d="M0 0 C2.00620099 6.16088672 -0.33923564 13.29836208 -3 19 C-3.33 18.34 -3.66 17.68 -4 17 C-4.66 17 -5.32 17 -6 17 C-5.01 13.7 -4.02 10.4 -3 7 C-2.67 7 -2.34 7 -2 7 C-1.34 4.69 -0.68 2.38 0 0 Z " fill="#133B55" transform="translate(104,73)"/>
<path d="M0 0 C0.66 0 1.32 0 2 0 C2 3.63 2 7.26 2 11 C3.65 11 5.3 11 7 11 C7 11.66 7 12.32 7 13 C3.71303767 13.79953138 2.28976808 14.09658936 -1 13 C-0.67 8.71 -0.34 4.42 0 0 Z " fill="#121212" transform="translate(142,38)"/>
<path d="M0 0 C-7.37067888 5.75635152 -7.37067888 5.75635152 -12 6 C-14.8125 5.5625 -14.8125 5.5625 -17 5 C-14.17696264 3.58206533 -11.35437471 2.16637294 -8.5 0.8125 C-7.7471875 0.44769531 -6.994375 0.08289063 -6.21875 -0.29296875 C-3.6936874 -1.09761018 -2.46129375 -0.87823436 0 0 Z " fill="#133E5F" transform="translate(91,104)"/>
<path d="M0 0 C0.58007812 0.08378906 1.16015625 0.16757813 1.7578125 0.25390625 C6.42315303 0.86209421 10.35442117 1.07205665 15 0 C15 0.66 15 1.32 15 2 C11.83650409 3.86131271 9.52763845 4.24746869 5.875 4.1875 C4.57175781 4.17783203 4.57175781 4.17783203 3.2421875 4.16796875 C1 4 1 4 -1 3 C-0.67 2.01 -0.34 1.02 0 0 Z " fill="#0E0E0E" transform="translate(132,80)"/>
<path d="M0 0 C5.29158974 1.40071493 7.77478044 4.85487245 11 9 C10.67 9.66 10.34 10.32 10 11 C9.34 11 8.68 11 8 11 C6.36502637 9.25839766 4.92214608 7.40190406 3.4375 5.53125 C2.963125 5.0259375 2.48875 4.520625 2 4 C1.34 4 0.68 4 0 4 C0 2.68 0 1.36 0 0 Z " fill="#1D486A" transform="translate(31,70)"/>
<path d="M0 0 C0.99 0.33 1.98 0.66 3 1 C3 3.31 3 5.62 3 8 C4.65 8 6.3 8 8 8 C8 8.33 8 8.66 8 9 C6.35 9 4.7 9 3 9 C3 11.31 3 13.62 3 16 C-0.13107836 12.61416198 -0.33550778 10.28890538 -0.1875 5.75 C-0.14689453 4.13351563 -0.14689453 4.13351563 -0.10546875 2.484375 C-0.07066406 1.66453125 -0.03585938 0.8446875 0 0 Z " fill="#114D77" transform="translate(49,56)"/>
<path d="M0 0 C0.99 0.66 1.98 1.32 3 2 C3 3.32 3 4.64 3 6 C3.99 6 4.98 6 6 6 C6 7.65 6 9.3 6 11 C1.545 9.02 1.545 9.02 -3 7 C-2.01 6.67 -1.02 6.34 0 6 C0 4.02 0 2.04 0 0 Z " fill="#144B73" transform="translate(84,63)"/>
<path d="M0 0 C2.4375 1.125 2.4375 1.125 5 3 C5.8125 6.1875 5.8125 6.1875 6 9 C4.35 9.66 2.7 10.32 1 11 C0.67 7.37 0.34 3.74 0 0 Z " fill="#1B5179" transform="translate(88,35)"/>
<path d="M0 0 C1.32 0 2.64 0 4 0 C4 2.97 4 5.94 4 9 C2.68 8.67 1.36 8.34 0 8 C0 5.36 0 2.72 0 0 Z " fill="#124E7B" transform="translate(86,81)"/>
<path d="M0 0 C0.66 0 1.32 0 2 0 C2 3.3 2 6.6 2 10 C0.35 10 -1.3 10 -3 10 C-3.33 9.01 -3.66 8.02 -4 7 C-4.66 6.67 -5.32 6.34 -6 6 C-4.68 5.67 -3.36 5.34 -2 5 C-1.67 5.66 -1.34 6.32 -1 7 C-0.67 4.69 -0.34 2.38 0 0 Z " fill="#305B7C" transform="translate(72,28)"/>
<path d="M0 0 C3.25696479 0.41755959 4.63443291 0.63443291 7 3 C6.625 5.125 6.625 5.125 6 7 C5.01 7 4.02 7 3 7 C0.8125 4 0.8125 4 -1 1 C-0.67 0.67 -0.34 0.34 0 0 Z " fill="#080707" transform="translate(143,53)"/>
<path d="M0 0 C0.99 0.33 1.98 0.66 3 1 C3 3.97 3 6.94 3 10 C2.01 10.33 1.02 10.66 0 11 C-0.19406478 9.35492782 -0.38007935 7.70890406 -0.5625 6.0625 C-0.66691406 5.14597656 -0.77132812 4.22945313 -0.87890625 3.28515625 C-0.91886719 2.53105469 -0.95882812 1.77695313 -1 1 C-0.67 0.67 -0.34 0.34 0 0 Z " fill="#0F0F0F" transform="translate(175,88)"/>
<path d="M0 0 C0.99 0.33 1.98 0.66 3 1 C3.33 3.97 3.66 6.94 4 10 C2.35 10 0.7 10 -1 10 C-0.67 6.7 -0.34 3.4 0 0 Z " fill="#131212" transform="translate(174,41)"/>
<path d="M0 0 C1.62490954 -0.02698189 3.24994633 -0.04638757 4.875 -0.0625 C5.77992188 -0.07410156 6.68484375 -0.08570313 7.6171875 -0.09765625 C10 0 10 0 12 1 C12 2.32 12 3.64 12 5 C11.34 5 10.68 5 10 5 C10 4.34 10 3.68 10 3 C8.02 3.33 6.04 3.66 4 4 C3.67 3.34 3.34 2.68 3 2 C2.01 1.34 1.02 0.68 0 0 Z " fill="#040202" transform="translate(210,33)"/>
<path d="M0 0 C1.98 0.99 3.96 1.98 6 3 C6 3.99 6 4.98 6 6 C1.25 4.125 1.25 4.125 -1 3 C-1 6.3 -1 9.6 -1 13 C-1.33 13 -1.66 13 -2 13 C-2 9.37 -2 5.74 -2 2 C-1.34 2 -0.68 2 0 2 C0 1.34 0 0.68 0 0 Z " fill="#2D516E" transform="translate(76,25)"/>
<path d="M0 0 C0.66 0 1.32 0 2 0 C3.17571451 3.67410785 3.07366746 7.16929183 3 11 C2.34 11 1.68 11 1 11 C1 10.01 1 9.02 1 8 C0.01 8 -0.98 8 -2 8 C-1.34 5.36 -0.68 2.72 0 0 Z " fill="#174B72" transform="translate(90,47)"/>
<path d="M0 0 C2.3668911 0.86068767 3.49710969 1.79326211 5.0625 3.75 C5.0625 4.41 5.0625 5.07 5.0625 5.75 C3.72916667 5.41666667 2.39583333 5.08333333 1.0625 4.75 C0.340625 4.62625 -0.38125 4.5025 -1.125 4.375 C-1.723125 4.16875 -2.32125 3.9625 -2.9375 3.75 C-3.2675 2.76 -3.5975 1.77 -3.9375 0.75 C-1.9375 -0.25 -1.9375 -0.25 0 0 Z " fill="#1E5077" transform="translate(80.9375,46.25)"/>
<path d="M0 0 C4.875 4.75 4.875 4.75 6 7 C5.34 7.66 4.68 8.32 4 9 C2.02 6.69 0.04 4.38 -2 2 C-1.34 1.34 -0.68 0.68 0 0 Z " fill="#21486A" transform="translate(75,15)"/>
<path d="M0 0 C0.66 0 1.32 0 2 0 C1.67 2.31 1.34 4.62 1 7 C-0.65 7.33 -2.3 7.66 -4 8 C-4.66 7.01 -5.32 6.02 -6 5 C-5.38125 4.9175 -4.7625 4.835 -4.125 4.75 C-1.81562433 4.18741541 -1.81562433 4.18741541 -0.75 1.9375 C-0.5025 1.298125 -0.255 0.65875 0 0 Z " fill="#0B0B0B" transform="translate(176,76)"/>
<path d="M0 0 C1.67542976 0.28604898 3.34385343 0.61781233 5 1 C5 2.32 5 3.64 5 5 C4.01 4.34 3.02 3.68 2 3 C1.01 3.66 0.02 4.32 -1 5 C-1 1 -1 1 0 0 Z " fill="#090909" transform="translate(152,92)"/>
<path d="M0 0 C1.98 0.495 1.98 0.495 4 1 C4 2.65 4 4.3 4 6 C3.01 6 2.02 6 1 6 C1 5.34 1 4.68 1 4 C0.34 4 -0.32 4 -1 4 C-0.67 2.68 -0.34 1.36 0 0 Z " fill="#104F7D" transform="translate(59,54)"/>
<path d="M0 0 C0.66 0 1.32 0 2 0 C1.67 1.98 1.34 3.96 1 6 C2.32 6.33 3.64 6.66 5 7 C3.25 7.6875 3.25 7.6875 1 8 C-1.25 6.6875 -1.25 6.6875 -3 5 C-3 4.34 -3 3.68 -3 3 C-2.01 2.67 -1.02 2.34 0 2 C0 1.34 0 0.68 0 0 Z " fill="#0C3859" transform="translate(75,97)"/>
<path d="M0 0 C0.66 0 1.32 0 2 0 C2 0.99 2 1.98 2 3 C2.66 3 3.32 3 4 3 C6 6 6 6 5.625 8.1875 C5.41875 8.785625 5.2125 9.38375 5 10 C2.08772731 6.71195019 0.50298788 4.40114397 0 0 Z " fill="#1D4A6C" transform="translate(34,90)"/>
<path d="M0 0 C1.98 0.99 1.98 0.99 4 2 C4 3.98 4 5.96 4 8 C3.01 8 2.02 8 1 8 C1.020625 7.236875 1.04125 6.47375 1.0625 5.6875 C1.12942841 2.89814214 1.12942841 2.89814214 0 0 Z " fill="#0F0E0D" transform="translate(182,92)"/>
<path d="M0 0 C0.66 0 1.32 0 2 0 C2.33 0.66 2.66 1.32 3 2 C4.98 1.67 6.96 1.34 9 1 C8.67 1.99 8.34 2.98 8 4 C4.37 4 0.74 4 -3 4 C-2.01 3.67 -1.02 3.34 0 3 C0 2.01 0 1.02 0 0 Z " fill="#1E527C" transform="translate(62,107)"/>
<path d="M0 0 C0.66 0.99 1.32 1.98 2 3 C0.68 4.32 -0.64 5.64 -2 7 C-2.99 6.34 -3.98 5.68 -5 5 C-3.35 3.35 -1.7 1.7 0 0 Z " fill="#153D5F" transform="translate(98,72)"/>
<path d="M0 0 C1.32 1.32 2.64 2.64 4 4 C3.01 5.32 2.02 6.64 1 8 C0.01 6.68 -0.98 5.36 -2 4 C-1.34 2.68 -0.68 1.36 0 0 Z " fill="#14486B" transform="translate(76,42)"/>
<path d="M0 0 C0.66 0 1.32 0 2 0 C3.25 6.625 3.25 6.625 1 10 C1.33 8.02 1.66 6.04 2 4 C1.01 4.33 0.02 4.66 -1 5 C-0.67 3.35 -0.34 1.7 0 0 Z " fill="#22557B" transform="translate(43,35)"/>
<path d="M0 0 C-0.99 1.485 -0.99 1.485 -2 3 C-2.39013716 4.9896995 -2.73202649 6.99019869 -3 9 C-3.33 9 -3.66 9 -4 9 C-4.66 6.03 -5.32 3.06 -6 0 C-2 -1 -2 -1 0 0 Z " fill="#184266" transform="translate(50,33)"/>
<path d="M0 0 C1.9375 0.625 1.9375 0.625 4 2 C4.75 5.125 4.75 5.125 5 8 C4.01 8 3.02 8 2 8 C0.74335022 5.09399739 0 3.20395416 0 0 Z " fill="#13446A" transform="translate(62,65)"/>
<path d="M0 0 C0.99 0 1.98 0 3 0 C1.75023244 3.65316671 1.32901247 4.78065836 -2 7 C-1.125 2.25 -1.125 2.25 0 0 Z " fill="#0C476E" transform="translate(36,61)"/>
<path d="M0 0 C2.475 0.495 2.475 0.495 5 1 C5.33 2.98 5.66 4.96 6 7 C3.95880212 5.38405168 1.95927063 3.7143618 0 2 C0 1.34 0 0.68 0 0 Z " fill="#141112" transform="translate(172,53)"/>
<path d="M0 0 C4.875 1.75 4.875 1.75 6 4 C4.125 4.625 4.125 4.625 2 5 C1.34 4.34 0.68 3.68 0 3 C0 2.01 0 1.02 0 0 Z " fill="#163E5E" transform="translate(59,93)"/>
<path d="M0 0 C0.99 1.32 1.98 2.64 3 4 C2.67 4.66 2.34 5.32 2 6 C-0.0625 6.625 -0.0625 6.625 -2 7 C-1.125 2.25 -1.125 2.25 0 0 Z " fill="#164F79" transform="translate(42,77)"/>
<path d="M0 0 C2 3 2 3 2 6 C-0.97 5.505 -0.97 5.505 -4 5 C-3.67 4.34 -3.34 3.68 -3 3 C-2.34 3 -1.68 3 -1 3 C-0.67 2.01 -0.34 1.02 0 0 Z " fill="#134267" transform="translate(61,23)"/>
<path d="" fill="#000000" transform="translate(0,0)"/>
</svg>
